:version 1.10
:name ASF
:units
  mass 1
  length 1
  angle deg
:documentation
  ASF file generated by Kaydara
:root
  axis xyz
  order  tx ty tz rx ry rz
  position 0 0 0
  orientation 0 0 0
:bonedata
  begin
    id 1
    name LeftUpLegDummy
    direction 1 -2.30186e-007 -8.31532e-007
    length 2.93387
    axis 0 0 0 xyz
  end
  begin
    id 2
    name LeftUpLeg
    direction -1.82929e-007 -1 -1.48925e-009
    length 17.3336
    axis -3.48766 0.00143442 -0.000521554 xyz
    dof rx ry rz
  end
  begin
    id 3
    name LeftLeg
    direction -1.82929e-007 -1 -5.23717e-011
    length 14.9995
    axis 3.68178 -0.00654042 -0.000282425 xyz
    dof rx ry rz
  end
  begin
    id 4
    name LeftFoot
    direction 8.31532e-007 -4.54534e-011 1
    length 6.74421
    axis 1.87234e-006 4.66016e-005 -5.96866e-006 xyz
    dof rx ry rz
  end
  begin
    id 5
    name LeftToes
    direction 0.00818058 -0.00485161 0.999955
    length 3.85048
    axis 1.06247e-005 4.65869e-005 -5.96999e-006 xyz
    dof rx ry rz
  end
  begin
    id 6
    name SpineDummy
    direction -5.8607e-008 0.943407 -0.331637
    length 5.93572
    axis 0 0 0 xyz
  end
  begin
    id 7
    name Spine
    direction -1.04988e-007 0.999988 0.00495137
    length 10.1015
    axis -0.001389 0.000121417 6.61666e-006 xyz
    dof rx ry rz
  end
  begin
    id 8
    name Spine1
    direction 0 0 0
    length 0
    axis -0.001389 0.00012144 6.56766e-006 xyz
    dof rx ry rz
  end
  begin
    id 9
    name RightShoulderDummy
    direction -0.98348 0.17941 -0.0240696
    length 3.59882
    axis -0.001389 0.00012144 6.56766e-006 xyz
  end
  begin
    id 10
    name RightShoulder
    direction -0.978693 0.204882 0.0135597
    length 2.70001
    axis 0.215806 0.000203631 -0.00679732 xyz
    dof rx ry rz
  end
  begin
    id 11
    name RightArm
    direction -1 3.85509e-006 8.31394e-007
    length 10.2459
    axis -23.2009 -0.134239 -0.964098 xyz
    dof rx ry rz
  end
  begin
    id 12
    name RightForeArm
    direction -1 3.85569e-006 8.3129e-007
    length 8.16799
    axis -9.92322 0.0658061 0.17887 xyz
    dof rx ry rz
  end
  begin
    id 13
    name RightHand
    direction -0.992843 -0.0414604 0.112003
    length 5.28593
    axis -0.00960638 0.00330669 -0.185225 xyz
    dof rx ry rz
  end
  begin
    id 14
    name LeftShoulder1Dummy
    direction 0.983523 0.179172 -0.0240748
    length 3.59866
    axis -0.001389 0.00012144 6.56766e-006 xyz
  end
  begin
    id 15
    name LeftShoulder1
    direction 0.978627 0.205195 0.0135605
    length 2.70019
    axis -0.001389 0.00012144 6.57583e-006 xyz
    dof rx ry rz
  end
  begin
    id 16
    name LeftArm
    direction 1 3.51895e-006 -8.60188e-007
    length 10.2459
    axis -23.1894 0.134785 0.967513 xyz
    dof rx ry rz
  end
  begin
    id 17
    name LeftForeArm
    direction 1 3.51921e-006 -7.32029e-007
    length 8.16799
    axis -9.91835 -0.0656957 -0.177789 xyz
    dof rx ry rz
  end
  begin
    id 18
    name LeftHand
    direction 0.992938 -0.0411636 0.11126
    length 5.32135
    axis -0.00960237 -0.00340661 0.185177 xyz
    dof rx ry rz
  end
  begin
    id 19
    name HEadDummy
    direction 1.01974e-006 0.999861 -0.016675
    length 2.99946
    axis -0.001389 0.00012144 6.56766e-006 xyz
  end
  begin
    id 20
    name HEad
    direction -0.0222689 0.980941 0.193023
    length 5.12695
    axis -0.001389 0.00012144 6.56766e-006 xyz
    dof rx ry rz
  end
  begin
    id 21
    name RightUpLegDummy
    direction -1 2.30186e-007 8.31532e-007
    length 2.93387
    axis 0 0 0 xyz
  end
  begin
    id 22
    name RightUpLeg
    direction -1.82966e-007 -1 1.56832e-007
    length 17.3336
    axis -3.4909 -0.000906625 0.00028951 xyz
    dof rx ry rz
  end
  begin
    id 23
    name RightLeg
    direction -1.82786e-007 -1 -1.80317e-007
    length 14.9995
    axis 3.68513 0.0193739 -0.131021 xyz
    dof rx ry rz
  end
  begin
    id 24
    name RightFoot
    direction 8.31721e-007 -4.63324e-011 1
    length 6.74421
    axis 4.81691e-005 -0.120479 -0.188785 xyz
    dof rx ry rz
  end
  begin
    id 25
    name RightToes
    direction 0.00124746 -0.014064 0.9999
    length 3.85082
    axis 0.000481921 0.542163 -0.142575 xyz
    dof rx ry rz
  end
:hierarchy
  begin
    root LeftUpLegDummy SpineDummy RightUpLegDummy
    LeftUpLegDummy LeftUpLeg
    LeftUpLeg LeftLeg
    LeftLeg LeftFoot
    LeftFoot LeftToes
    SpineDummy Spine
    Spine Spine1
    Spine1 RightShoulderDummy LeftShoulder1Dummy HEadDummy
    RightShoulderDummy RightShoulder
    RightShoulder RightArm
    RightArm RightForeArm
    RightForeArm RightHand
    LeftShoulder1Dummy LeftShoulder1
    LeftShoulder1 LeftArm
    LeftArm LeftForeArm
    LeftForeArm LeftHand
    HEadDummy HEad
    RightUpLegDummy RightUpLeg
    RightUpLeg RightLeg
    RightLeg RightFoot
    RightFoot RightToes
  end

:SAMPLES-PER-SECOND 30
:FULLY-SPECIFIED
:DEGREES
278
root  -3.47417 34.6006 3.34657 23.2791 69.2145 11.248
LeftUpLeg  -20.7939 12.8361 0.0136637
LeftLeg  9.06547 2.00207 0.187592
LeftFoot  16.0538 -0.0781718 0.554321
LeftToes  -27.4358 6.91067e-007 1.07128e-007
Spine  3.72782 0.30548 1.44082
Spine1  7.4609 0.510718 2.90333
RightShoulder  0.00210483 1.03699 5.59019
RightArm  -23.2394 -21.3594 73.9971
RightForeArm  21.1571 28.9046 5.58362
RightHand  0.176027 -8.73682 -1.93252
LeftShoulder1  -0.00336272 1.74544 -6.95187
LeftArm  -17.0448 30.4652 -77.4492
LeftForeArm  13.3845 -34.4609 -6.94394
LeftHand  -0.25606 7.48977 -4.27656
HEad  -19.3504 -28.2325 0.216974
RightUpLeg  -16.3154 -19.2258 0.992168
RightLeg  4.18806 9.56576 0.0864578
RightFoot  5.81157 -0.0380049 0.963479
RightToes  -23.5101 -0.101878 -0.204428
279
root  -3.29852 34.607 3.16906 22.3066 67.0454 10.2417
LeftUpLeg  -20.6519 12.0928 0.616107
LeftLeg  10.1164 0.779943 0.0867907
LeftFoot  14.8938 -0.026127 0.199877
LeftToes  -27.4996 6.91067e-007 1.07128e-007
Spine  3.70464 0.310265 1.3625
Spine1  7.4141 0.52545 2.7485
RightShoulder  0.00180846 0.938999 5.81032
RightArm  -22.8554 -21.9667 73.6119
RightForeArm  21.2881 28.3098 5.4467
RightHand  0.119792 -8.58819 -1.22434
LeftShoulder1  -0.00328028 1.82515 -7.01562
LeftArm  -16.9863 30.96 -77.7532
LeftForeArm  13.6264 -33.9234 -6.80426
LeftHand  -0.280302 7.46369 -4.66107
HEad  -19.4394 -26.3925 -0.721736
RightUpLeg  -16.2098 -18.4063 0.492941
RightLeg  3.8395 10.7981 0.0322385
RightFoot  6.20864 -0.0506864 1.16681
RightToes  -24.1961 -0.106064 -0.209674
280
root  -3.07419 34.604 3.00117 20.9798 64.6122 8.84068
LeftUpLeg  -19.8794 10.8624 1.63054
LeftLeg  11.2388 -0.397031 -0.0539719
LeftFoot  12.7475 0.0100351 -0.0898453
LeftToes  -27.8775 6.91067e-007 1.07128e-007
Spine  3.56379 0.340096 1.29561
Spine1  7.13257 0.593021 2.61649
RightShoulder  0.00205216 0.920043 6.11582
RightArm  -22.4217 -22.5628 73.1213
RightForeArm  21.4272 27.3066 5.21928
RightHand  0.0843279 -8.49361 -0.764992
LeftShoulder1  -0.00293549 1.95621 -7.18497
LeftArm  -17.0095 31.4411 -77.9436
LeftForeArm  14.0396 -32.9406 -6.55344
LeftHand  -0.305341 7.33779 -5.12427
HEad  -19.3568 -24.2473 -1.91587
RightUpLeg  -15.9881 -17.0883 0.0722028
RightLeg  3.34773 11.8239 -0.065451
RightFoot  6.62093 -0.0627116 1.36749
RightToes  -24.8975 -0.109619 -0.214986
281
root  -2.80301 34.5913 2.84146 19.0824 62.0128 7.12496
LeftUpLeg  -18.2901 8.94251 2.96801
LeftLeg  12.5404 -1.33579 -0.209625
LeftFoot  9.90262 0.0202777 -0.234075
LeftToes  -28.11 6.91067e-007 1.07128e-007
Spine  3.40432 0.380387 1.22722
Spine1  6.81288 0.682066 2.47922
RightShoulder  0.00303092 0.998031 6.68418
RightArm  -21.8284 -22.7802 72.3423
RightForeArm  21.8299 25.4024 4.79902
RightHand  0.0686107 -8.34418 -0.570096
LeftShoulder1  -0.00230099 1.68735 -7.33042
LeftArm  -17.4371 31.9246 -77.9897
LeftForeArm  14.2739 -31.6643 -6.23601
LeftHand  -0.321358 7.41645 -5.32027
HEad  -19.2069 -21.709 -3.16613
RightUpLeg  -15.5245 -15.6592 -0.248951
RightLeg  3.11314 12.949 -0.123988
RightFoot  6.90594 -0.0740883 1.56817
RightToes  -25.395 -0.11353 -0.218721
282
root  -2.5045 34.552 2.68831 16.8822 59.4813 5.04586
LeftUpLeg  -16.5714 7.15427 4.26135
LeftLeg  14.2337 -1.46183 -0.27393
LeftFoot  6.64203 0.0168346 -0.17457
LeftToes  -28.0969 6.91067e-007 1.07128e-007
Spine  3.15701 0.329433 1.29033
Spine1  6.31651 0.58249 2.59554
RightShoulder  0.0048167 1.23288 7.38263
RightArm  -21.4419 -22.3435 71.1246
RightForeArm  24.1889 22.5747 4.19921
RightHand  0.00791737 -8.22117 0.259632
LeftShoulder1  -0.00134937 1.40789 -7.56415
LeftArm  -17.5345 32.1518 -77.8495
LeftForeArm  14.9063 -29.9365 -5.82044
LeftHand  -0.327294 7.54166 -5.32785
HEad  -19.0641 -18.9872 -4.34502
RightUpLeg  -15.2228 -14.5242 -0.191291
RightLeg  3.30246 14.3108 -0.0896278
RightFoot  6.95813 -0.083714 1.75427
RightToes  -26.2763 -0.119138 -0.225271
283
root  -2.19531 34.492 2.5305 14.9404 57.1813 3.204
LeftUpLeg  -14.9571 5.70275 5.08271
LeftLeg  15.9242 0.0423787 0.00733516
LeftFoot  3.8402 0.0060234 -0.00236806
LeftToes  -27.8856 6.91067e-007 1.07128e-007
Spine  2.84002 0.192495 1.42479
Spine1  5.68007 0.311236 2.84238
RightShoulder  0.00945551 1.80064 8.27479
RightArm  -22.0014 -21.3817 69.564
RightForeArm  28.5364 18.9107 3.45752
RightHand  -0.0251653 -7.98896 0.729785
LeftShoulder1  -5.32572e-005 1.01873 -7.9044
LeftArm  -16.5676 31.9009 -77.2691
LeftForeArm  16.4248 -27.8007 -5.32709
LeftHand  -0.318156 7.6115 -5.14532
HEad  -18.6532 -16.1941 -5.45743
RightUpLeg  -15.1629 -14.0802 -0.0253003
RightLeg  4.04958 16.2253 0.108085
RightFoot  6.62748 -0.0886328 1.90804
RightToes  -27.0612 -0.124216 -0.231031
284
root  -1.89824 34.4125 2.37609 13.4337 55.3479 1.82507
LeftUpLeg  -13.6936 5.0044 5.33252
LeftLeg  16.6335 2.33367 0.534589
LeftFoot  1.94076 0.000927482 0.0659049
LeftToes  -27.3799 6.91067e-007 1.07128e-007
Spine  2.5083 -0.00321061 1.55892
Spine1  5.00437 -0.081931 3.06851
RightShoulder  0.0252068 2.55659 9.36225
RightArm  -23.5937 -20.1233 67.9627
RightForeArm  32.3718 15.0448 2.70999
RightHand  0.0342495 -7.64962 -0.142168
LeftShoulder1  0.00161475 0.291117 -8.32471
LeftArm  -14.6556 30.8993 -76.1343
LeftForeArm  19.537 -25.1323 -4.73802
LeftHand  -0.310784 7.59012 -5.04793
HEad  -18.1841 -13.6617 -6.11468
RightUpLeg  -15.388 -13.7574 0.0199527
RightLeg  5.50782 17.7798 0.564247
RightFoot  5.95647 -0.0786925 1.88977
RightToes  -27.8429 -0.129353 -0.236698
